<svg xmlns="http://www.w3.org/2000/svg" fill="none" viewBox="0 0 315 295"><defs/><path fill="#91FFBD" fill-opacity=".7" d="M76.13 35.54c24.605-55.601 181.038-45.427 229.173 26.758 48.134 72.184-6.877 232.562-56.187 232.562-49.311 0-49.311-108.281-69.641-140.081-20.33-31.8-127.948-63.632-103.345-119.239z"/><path fill="#2B44FF" fill-opacity=".6" d="M34.971 174.469c13.946 26.124 38.376 6.44 69.795-20.891 31.419-27.332 71.244-54.307 57.294-80.426-13.949-26.119-64.044-22.79-95.458 4.538-31.415 27.327-45.576 70.657-31.63 96.779z"/><path fill="#FF73C6" fill-opacity=".7" d="M295.957 273.367c19.875 0 41.8-19.029 41.8-43.28 0-24.25-21.925-43.278-41.8-43.278-19.876 0-27.265 27.75-27.265 47.64s7.391 38.918 27.265 38.918z"/><path fill="#B28B67" d="M91.533 146.681l4.406-20.619a14.539 14.539 0 01-3.842-10.421c.801-11.458 16.689-8.938 19.779-3.155 3.09 5.783 2.724 20.452-1.271 21.486-1.593.412-4.986-.6-8.44-2.687l2.168 15.4-12.8-.004z"/><path fill="#191847" d="M94.956 128.642c-1.606-7.175-6.183-12.066-5.484-15.273a5.443 5.443 0 013.728-3.989s1.564-6.355 10.1-5.408c8.536.947 13.737 4.506 11.488 12.334-2.067 0-4.563-.751-8.014.535-1.643.612-2.35 3.8-2.35 3.8h-1.56s-2.27-3.779-4.477-2.777c-2.207 1.002-1 4.865-1 4.865l-.768 5.916-1.663-.003z"/><path fill="#C5CFD6" d="M73.398 213.607h41.2l5.4 66.391H58.666l14.732-66.391z"/><path fill="#000" fill-opacity=".1" d="M73.398 213.607h12.668l7.585 66.391H58.666l14.732-66.391z"/><path fill="#B28B67" d="M150.844 274.9c-.534-6.773-1.526-30.221-.533-41.074.419-4.581.871-8.939 1.315-12.811-9.525 17.198-25.11 42.35-25.11 42.35l-6.142-2.817s7.235-23.93 11.865-33.787c5.285-11.253 10.241-20.89 12.327-24.284 3.28-5.339 8.991-3.476 12.008-.244 4.393-2.648 11.763.754 11.758 4.541-.014 11.332-10.315 64.739-10.858 68.115a3.652 3.652 0 01-3.665 2.878 2.855 2.855 0 01-2.965-2.867z"/><path fill="#1F28CF" d="M120.814 251.689l21.081-50.135c5.05-8.156 19.21 1.659 17.488 6.389-3.909 10.74-23.799 45.505-24.964 48.705l-13.605-4.959z"/><path fill="#E4E4E4" d="M119.996 259.193a1.123 1.123 0 00-.747-.361 1.03 1.03 0 00-.41.056.956.956 0 00-.346.209l-2.536 2.385a30.158 30.158 0 00-1.547 3.625l25.692 14.833s2.803-2.541.789-4.036c-2.015-1.495-3.326-2.52-3.326-2.52l-9.043-11.91a.561.561 0 00-.351-.211.51.51 0 00-.388.089l-1.781 1.312s-2.504-.275-3.753-.996l-2.253-2.475zM150.986 271.45a1.08 1.08 0 00-.426-.053 1.082 1.082 0 00-.745.393c-.09.113-.158.243-.197.382l-1.018 3.6c.074 1.418.234 2.831.481 4.229h30.081s1.173-3.891-1.354-4.2c-2.527-.309-4.2-.56-4.2-.56l-13.979-6.262a.524.524 0 00-.415-.008.552.552 0 00-.295.293l-.9 2.189a12.036 12.036 0 01-3.8 1.1l-3.233-1.103z"/><path fill="#2B44FF" d="M169.811 210.627c0 14.224-6.729 47.4-6.733 50.536l-14.478.011s3.179-44.409 2.254-44.887c-.925-.478-37.894 3.705-48.982 3.705-15.988 0-22.602-10.122-23.139-28.872h31.673c6.449.693 40.087 7.5 52.579 9.845 5.348 1.003 6.826 5.743 6.826 9.662z"/><path fill="#B28B67" d="M144.143 188.281l-16.847-7.014 3.761-9.329 17.012 12.538a45.692 45.692 0 0111.565 4.662c.731.669 1.615 2.023-1.418 1.789-3.033-.234-6.233-.344-6.651.7-.418 1.044 1.416 2.28.571 3.681a.4.4 0 01-.369.2c-.997-.001-3.538-2.41-7.624-7.227zm-11.3-52.126l20.216-6.092a45.78 45.78 0 0110.671-6.465c.972-.184 2.582-.077.57 2.214s-4.024 4.791-3.45 5.751c.574.96 2.667.237 3.273 1.758.404 1.015-3.062 1.741-10.4 2.179l-15.719 9.287-5.161-8.632z"/><path fill="#2026A2" d="M104.636 138.163c9.26 17.344 22.656 30.641 42.077 44.465l-7.358 8.325c-21.687-8.093-33.132-12.979-38.75-29.365-1.408-4.114-2.395-17.225-3.238-24.122l7.269.697z"/><path fill="#F2F2F2" d="M78.733 195.939H119.8s-13.954-42.722-14.256-58.643c-.011-.541-1.006-1.494-1.446-1.37-4.832 1.37-10.34-1.024-10.34-1.024-9.736 15.719-13.102 35.072-15.025 61.037z"/><path fill="#1F28CF" d="M77.72 204.998c-3.303-22.266 5.378-53.14 13.425-68.711a2.744 2.744 0 012.502-1.716h6.043l.008.024c2.036.016 4.302.095 6.773.179 11.104.368 26.352.734 43.464-4.776L152 140.35c-15.813 10.2-31.82 18.102-45.845 16.98 2.345 16.668 1.845 47.668-7.637 47.668H77.72z"/></svg>
